<svg width="37" height="37" viewBox="0 0 37 37" fill="none" xmlns="http://www.w3.org/2000/svg">
<path opacity="0.2" d="M36.957 9.07812L36.875 36.2031C36.875 36.4401 36.793 36.6315 36.6289 36.7773C36.4831 36.9232 36.3008 36.9961 36.082 36.9961H8.90234C8.66536 36.9961 8.47396 36.9232 8.32812 36.7773C8.18229 36.6315 8.10938 36.4492 8.10938 36.2305C8.10938 36.0299 8.18229 35.8659 8.32812 35.7383C8.49219 35.6107 8.68359 35.5469 8.90234 35.5469H23.9414L34.5508 35.6562L30.4492 31.6641L0.261719 1.47656C0.115885 1.33073 0.0429688 1.14844 0.0429688 0.929688C0.0429688 0.802083 0.0794271 0.674479 0.152344 0.546875C0.22526 0.4375 0.316406 0.346354 0.425781 0.273438C0.553385 0.21875 0.690104 0.191406 0.835938 0.191406C1.01823 0.191406 1.19141 0.273438 1.35547 0.4375L31.543 30.5977L35.4531 34.6445L35.4258 26.5234V9.05078C35.4258 8.83203 35.4896 8.64062 35.6172 8.47656C35.763 8.33073 35.9453 8.25781 36.1641 8.25781C36.401 8.25781 36.5924 8.33073 36.7383 8.47656C36.8841 8.64062 36.957 8.84115 36.957 9.07812Z" fill="black"/>
</svg>
