<svg width="37" height="37" viewBox="0 0 37 37" fill="none" xmlns="http://www.w3.org/2000/svg">
<path opacity="0.2" d="M36.957 27.9219L36.875 0.796875C36.875 0.559896 36.793 0.36849 36.6289 0.222656C36.4831 0.0768229 36.3008 0.00390625 36.082 0.00390625H8.90234C8.66536 0.00390625 8.47396 0.0768229 8.32812 0.222656C8.18229 0.36849 8.10938 0.550781 8.10938 0.769531C8.10938 0.970052 8.18229 1.13411 8.32812 1.26172C8.49219 1.38932 8.68359 1.45312 8.90234 1.45312H23.9414L34.5508 1.34375L30.4492 5.33594L0.261719 35.5234C0.115885 35.6693 0.0429688 35.8516 0.0429688 36.0703C0.0429688 36.1979 0.0794271 36.3255 0.152344 36.4531C0.22526 36.5625 0.316406 36.6536 0.425781 36.7266C0.553385 36.7812 0.690104 36.8086 0.835938 36.8086C1.01823 36.8086 1.19141 36.7266 1.35547 36.5625L31.543 6.40234L35.4531 2.35547L35.4258 10.4766V27.9492C35.4258 28.168 35.4896 28.3594 35.6172 28.5234C35.763 28.6693 35.9453 28.7422 36.1641 28.7422C36.401 28.7422 36.5924 28.6693 36.7383 28.5234C36.8841 28.3594 36.957 28.1589 36.957 27.9219Z" fill="black"/>
</svg>
