<svg width="49" height="39" viewBox="0 0 49 39" fill="none" xmlns="http://www.w3.org/2000/svg">
<path opacity="0.2" d="M48.3984 19.4062C48.3984 19.1875 48.3255 19.0052 48.1797 18.8594L30.707 1.25C30.5247 1.04948 30.3698 0.921875 30.2422 0.867188C30.1146 0.794271 29.9961 0.757812 29.8867 0.757812C29.668 0.757812 29.4857 0.839844 29.3398 1.00391C29.194 1.14974 29.1211 1.3138 29.1211 1.49609C29.1211 1.6237 29.1302 1.73307 29.1484 1.82422C29.1849 1.91536 29.2487 1.98828 29.3398 2.04297L40.4414 13.1992L46.7852 19.3789L47.0039 18.75L40.6328 18.668H1.3125C1.11198 18.668 0.938802 18.7409 0.792969 18.8867C0.647135 19.0143 0.574219 19.1875 0.574219 19.4062C0.574219 19.625 0.647135 19.7982 0.792969 19.9258C0.938802 20.0534 1.11198 20.1172 1.3125 20.1172H40.6328L47.0039 20.0625L46.7852 19.4062L40.4414 25.5859L29.3398 36.7422C29.2669 36.7969 29.2122 36.8789 29.1758 36.9883C29.1393 37.0794 29.1211 37.1888 29.1211 37.3164C29.1211 37.4987 29.194 37.6719 29.3398 37.8359C29.4857 37.9818 29.668 38.0547 29.8867 38.0547C30.0872 38.0547 30.2604 37.9727 30.4062 37.8086L48.1797 19.9531C48.3255 19.8073 48.3984 19.625 48.3984 19.4062Z" fill="black"/>
</svg>
