<svg width="95" height="34" viewBox="0 0 95 34" fill="none" xmlns="http://www.w3.org/2000/svg">
<path d="M0.500023 30.1419C0.498386 30.5829 0.583859 31.0201 0.751581 31.428C0.91937 31.836 1.1662 32.2072 1.47797 32.5196C1.78953 32.8317 2.15992 33.0796 2.56793 33.2478L2.75336 32.7981L1.00002 10.1428C1.00002 7.71802 1.96143 5.39248 3.6727 3.67787C5.38397 1.96325 7.70492 1 10.125 1H86.5473C88.3619 1 90.103 1.72245 91.3864 3.00843C92.6697 4.29434 93.391 6.0385 93.391 7.85711C93.391 9.67578 92.6697 11.4199 91.3864 12.7059C90.103 13.9918 88.3619 14.7143 86.5473 14.7143H49.8989C49.3319 14.7173 48.7895 14.945 48.3898 15.3476C47.9901 15.7502 47.7657 16.295 47.7657 16.8628C47.7657 17.1435 47.8209 17.4214 47.9281 17.6807C48.0353 17.94 48.1924 18.1756 48.3905 18.374C48.5885 18.5725 48.8236 18.7299 49.0824 18.8373C49.3412 18.9447 49.6184 19 49.8989 19H91.6796C92.1337 19 92.5686 19.1806 92.8895 19.5019C93.2105 19.8235 93.391 20.2597 93.391 20.7141V30.1429M0.500023 30.1419C0.500024 30.1416 0.500026 30.1412 0.500027 30.1409L1.00002 30.1429H0.500023V30.1419ZM0.500023 30.1419V10.1428C0.500023 7.58572 1.51387 5.13311 3.3188 3.32466C5.12376 1.51617 7.572 0.5 10.125 0.5H86.5473C88.4948 0.5 90.3632 1.27536 91.7403 2.65522C93.1172 4.03496 93.891 5.90617 93.891 7.85711C93.891 9.80811 93.1172 11.6793 91.7403 13.0591C90.3632 14.4389 88.4948 15.2143 86.5473 15.2143H49.9004M49.9004 15.2143C49.9008 15.2143 49.9012 15.2143 49.9016 15.2143L49.8989 14.7146V15.2143H49.9004ZM49.9004 15.2143C49.4663 15.2169 49.0509 15.3913 48.7446 15.6999C48.438 16.0087 48.2657 16.4268 48.2657 16.8628C48.2657 17.0779 48.308 17.2909 48.3902 17.4896L48.3902 17.4897C48.4723 17.6884 48.5926 17.8688 48.7444 18.0208C48.8961 18.1728 49.0761 18.2933 49.2741 18.3755M49.2741 18.3755C49.2741 18.3755 49.274 18.3755 49.274 18.3755L49.0832 18.8354L49.2741 18.3755ZM49.2741 18.3755C49.4722 18.4577 49.6843 18.5 49.8989 18.5H91.6796C92.2666 18.5 92.8287 18.7335 93.2433 19.1485L93.2434 19.1486C93.658 19.564 93.891 20.1273 93.891 20.7141V30.1415M93.891 30.1415L93.391 30.1429M93.891 30.1415V30.1429H93.391M93.891 30.1415C93.8922 30.5821 93.8073 31.0195 93.6395 31.4279L93.6392 31.4285C93.4712 31.836 93.2248 32.2071 92.9129 32.5196C92.6013 32.8318 92.2307 33.0796 91.8229 33.2478C91.4158 33.4157 90.9791 33.5017 90.5383 33.5H90.5395V33L90.5373 33.5L50.0469 33.5C48.0989 33.5 46.2309 32.7244 44.8538 31.3447C43.4767 29.965 42.7032 28.0939 42.7032 26.1429V15.8571C42.7032 14.2093 43.3565 12.6288 44.5197 11.4633L44.8635 11.8064L44.5197 11.4633C45.683 10.2978 47.2609 9.64282 48.9064 9.64282H66.0157C66.4879 9.64282 66.9407 9.45501 67.275 9.12033M93.391 30.1429C93.392 30.5184 93.3196 30.8906 93.177 31.2378L45.2077 30.9914C43.9243 29.7056 43.2032 27.9616 43.2032 26.1429V15.8571C43.2032 14.3416 43.8041 12.8881 44.8736 11.8165C45.9432 10.7449 47.3938 10.1428 48.9064 10.1428H66.0157C66.6209 10.1428 67.2011 9.90202 67.6291 9.47338M67.275 9.12033L67.6291 9.47338M67.275 9.12033C67.2751 9.12025 67.2752 9.12018 67.2752 9.12011L67.6291 9.47338M67.275 9.12033C67.609 8.78539 67.7971 8.33095 67.7971 7.85711C67.7971 7.38334 67.609 6.9289 67.275 6.59396M67.6291 9.47338C68.0565 9.04474 68.2971 8.46335 68.2971 7.85711C68.2971 7.25093 68.0565 6.66954 67.6291 6.2409M67.6291 6.2409L67.2752 6.59418C67.2752 6.5941 67.2751 6.59403 67.275 6.59396M67.6291 6.2409C67.2011 5.81226 66.6209 5.57141 66.0157 5.57141H48.9064C46.1837 5.57141 43.5726 6.65509 41.6474 8.58405C39.7223 10.513 38.6407 13.1292 38.6407 15.8571V30.1429M67.6291 6.2409L67.275 6.59396M67.275 6.59396C66.9407 6.25925 66.4878 6.07141 66.0157 6.07141H48.9064C46.3167 6.07141 43.8328 7.10217 42.0013 8.93726C40.1698 10.7723 39.1407 13.2615 39.1407 15.8571L39.1407 30.1409L38.6407 30.1429M38.6407 30.1429H39.1407V30.1419L2.75854 32.7856C3.10522 32.9285 3.47671 33.0016 3.8516 33M38.6407 30.1429C38.6422 30.5184 38.5695 30.8906 38.4267 31.2378C38.284 31.585 38.074 31.9008 37.8088 32.1664M37.8088 32.1664C37.5438 32.432 37.2288 32.6426 36.8822 32.7856C36.5355 32.9285 36.1641 33.0016 35.7892 33H3.8516M37.8088 32.1664L38.1627 32.5196C38.1627 32.5196 38.1627 32.5196 38.1627 32.5196L37.8088 32.1664ZM3.8516 33L3.85373 33.5M3.8516 33V33.5H3.85281C3.85312 33.5 3.85343 33.5 3.85373 33.5M3.85373 33.5H35.787M3.85373 33.5H35.787M35.787 33.5C35.7873 33.5 35.7877 33.5 35.788 33.5H35.7892V33.0004L35.787 33.5Z" stroke="#778497"/>
</svg>
