<svg width="93" height="32" viewBox="0 0 93 32" fill="none" xmlns="http://www.w3.org/2000/svg">
<path d="M2.30914e-05 9.14282V29.1429C-0.00148862 29.5184 0.0712385 29.8906 0.21401 30.2378C0.356782 30.585 0.566771 30.9008 0.831869 31.1664C1.09695 31.432 1.41191 31.6426 1.75854 31.7856C2.10522 31.9285 2.47671 32.0016 2.8516 32H34.7892C35.1641 32.0016 35.5355 31.9285 35.8822 31.7856C36.2288 31.6426 36.5438 31.432 36.8088 31.1664C37.074 30.9008 37.284 30.585 37.4267 30.2378C37.5695 29.8906 37.6422 29.5184 37.6407 29.1429V14.8571C37.6407 12.1292 38.7223 9.51295 40.6474 7.58405C42.5726 5.65509 45.1837 4.57141 47.9064 4.57141H65.0157C65.6209 4.57141 66.2011 4.81226 66.6291 5.2409C67.0565 5.66954 67.2971 6.25093 67.2971 6.85711C67.2971 7.46335 67.0565 8.04474 66.6291 8.47338C66.2011 8.90202 65.6209 9.14282 65.0157 9.14282H47.9064C46.3938 9.14282 44.9432 9.7449 43.8736 10.8165C42.8041 11.8881 42.2032 13.3416 42.2032 14.8571V25.1429C42.2032 26.9616 42.9243 28.7056 44.2077 29.9914C45.4911 31.2773 47.2319 32 49.0469 32H89.5395C89.9142 32.0016 90.2857 31.9285 90.6323 31.7856C90.9788 31.6426 91.2939 31.432 91.559 31.1664C91.8241 30.9008 92.0338 30.585 92.177 30.2378C92.3196 29.8906 92.392 29.5184 92.391 29.1429V19.7141C92.391 19.2597 92.2105 18.8235 91.8895 18.5019C91.5686 18.1806 91.1337 18 90.6796 18H48.8989C48.6184 18 48.3412 17.9447 48.0824 17.8373C47.8236 17.7299 47.5885 17.5725 47.3905 17.374C47.1924 17.1756 47.0353 16.94 46.9281 16.6807C46.8209 16.4214 46.7657 16.1435 46.7657 15.8628C46.7657 15.295 46.9901 14.7502 47.3898 14.3476C47.7895 13.945 48.3319 13.7173 48.8989 13.7143H85.5473C87.3619 13.7143 89.103 12.9918 90.3864 11.7059C91.6697 10.4199 92.391 8.67578 92.391 6.85711C92.391 5.0385 91.6697 3.29434 90.3864 2.00843C89.103 0.722453 87.3619 0 85.5473 0H9.12504C6.70492 0 4.38397 0.963254 2.6727 2.67787C0.961429 4.39248 2.30914e-05 6.71802 2.30914e-05 9.14282Z" fill="#DEE4EC"/>
</svg>
