<svg width="59" height="32" viewBox="0 0 59 32" fill="none" xmlns="http://www.w3.org/2000/svg">
<rect width="59" height="32" fill="white"/>
<path d="M29.5 30.6719C29.7188 30.6719 29.8958 30.6094 30.0312 30.4844C30.1771 30.3594 30.2604 30.1875 30.2812 29.9688C30.4896 27.75 30.7188 25.9115 30.9688 24.4531C31.2292 22.9844 31.6042 21.8073 32.0938 20.9219C32.5938 20.026 33.2865 19.3385 34.1719 18.8594C35.0573 18.3698 36.2188 18.0052 37.6562 17.7656C39.1042 17.5156 40.9271 17.2969 43.125 17.1094C43.3229 17.099 43.4844 17.026 43.6094 16.8906C43.7448 16.7552 43.8125 16.5833 43.8125 16.375C43.8125 16.1667 43.7448 15.9948 43.6094 15.8594C43.4844 15.724 43.3229 15.651 43.125 15.6406C40.9271 15.4531 39.1042 15.2396 37.6562 15C36.2188 14.75 35.0573 14.3854 34.1719 13.9062C33.2865 13.4167 32.5938 12.7292 32.0938 11.8438C31.6042 10.9479 31.2292 9.77083 30.9688 8.3125C30.7188 6.84375 30.4896 5 30.2812 2.78125C30.2604 2.5625 30.1771 2.39062 30.0312 2.26562C29.8958 2.14062 29.7188 2.07812 29.5 2.07812C29.2917 2.07812 29.1146 2.14062 28.9688 2.26562C28.8229 2.39062 28.7344 2.5625 28.7031 2.78125C28.4948 5 28.2604 6.84375 28 8.3125C27.75 9.77083 27.375 10.9479 26.875 11.8438C26.3854 12.7292 25.6979 13.4167 24.8125 13.9062C23.9271 14.3854 22.7604 14.75 21.3125 15C19.8646 15.2396 18.0469 15.4531 15.8594 15.6406C15.651 15.651 15.4792 15.724 15.3438 15.8594C15.2188 15.9948 15.1562 16.1667 15.1562 16.375C15.1562 16.5833 15.2188 16.75 15.3438 16.875C15.4792 17 15.651 17.0781 15.8594 17.1094C17.6615 17.3281 19.2083 17.5417 20.5 17.75C21.7917 17.9479 22.875 18.2135 23.75 18.5469C24.625 18.8698 25.3438 19.3021 25.9062 19.8438C26.4688 20.375 26.9167 21.0781 27.25 21.9531C27.5938 22.8177 27.8698 23.9062 28.0781 25.2188C28.2969 26.5208 28.5052 28.1042 28.7031 29.9688C28.7344 30.1875 28.8229 30.3594 28.9688 30.4844C29.1146 30.6094 29.2917 30.6719 29.5 30.6719Z" fill="black"/>
</svg>
