<svg width="40" height="40" viewBox="0 0 40 40" fill="none" xmlns="http://www.w3.org/2000/svg">
<path d="M20 40C8.99563 40 0 31.0044 0 20C0 8.99563 8.99563 0 20 0C31.0044 0 40 8.99563 40 20C40 31.0044 31.0044 40 20 40ZM20 38.821C30.3712 38.821 38.821 30.3712 38.821 20C38.821 9.62882 30.3712 1.17904 20 1.17904C9.62882 1.17904 1.17904 9.62882 1.17904 20C1.17904 30.3712 9.62882 38.821 20 38.821ZM27.0961 24.738C26.7467 24.738 26.5066 24.5197 26.5066 24.1266V17.9258L26.5284 14.1921L24.5852 16.2445L13.3843 27.4236C13.2751 27.5546 13.1223 27.6201 12.9039 27.6201C12.5546 27.6201 12.3144 27.4017 12.3144 27.0524C12.3144 26.8559 12.4017 26.7031 12.5109 26.5939L23.7336 15.3712L25.786 13.3843L22.9258 13.4061H15.8079C15.4367 13.4061 15.1965 13.1659 15.1965 12.8166C15.1965 12.5109 15.4367 12.2926 15.8079 12.2926H27.0742C27.4236 12.2926 27.6638 12.5109 27.6638 12.8821V24.1266C27.6638 24.4978 27.4236 24.738 27.0961 24.738Z" fill="white"/>
</svg>
