<svg width="1131" height="466" viewBox="0 0 1131 466" fill="none" xmlns="http://www.w3.org/2000/svg">
<g filter="url(#filter0_f_128_1504)">
<path fill-rule="evenodd" clip-rule="evenodd" d="M825.969 172.622L864.391 190.973L863.818 172.622L902.241 190.973L901.667 172.622L958.907 199.96V279.151H940.556V211.532L920.951 202.168L921.524 220.52L883.101 202.168L883.675 220.52L845.252 202.168L845.45 208.502L807.027 263.555L807.976 293.924L769.553 275.573L770.127 293.924L731.704 275.573L732.278 293.924L693.855 275.573L694.428 293.924L656.006 275.573L656.404 288.326H409.844L172.813 214.507L178.27 196.986L412.635 269.975H637.471L636.722 246.026L675.145 264.377L674.571 246.026L712.994 264.377L712.421 246.026L750.843 264.377L750.27 246.026L788.693 264.377L788.495 258.044L826.918 202.991L825.969 172.622Z" fill="url(#paint0_linear_128_1504)"/>
</g>
<defs>
<filter id="filter0_f_128_1504" x="0.813477" y="0.621582" width="1130.09" height="465.303" filterUnits="userSpaceOnUse" color-interpolation-filters="sRGB">
<feFlood flood-opacity="0" result="BackgroundImageFix"/>
<feBlend mode="normal" in="SourceGraphic" in2="BackgroundImageFix" result="shape"/>
<feGaussianBlur stdDeviation="86" result="effect1_foregroundBlur_128_1504"/>
</filter>
<linearGradient id="paint0_linear_128_1504" x1="172.101" y1="280.267" x2="1071.31" y2="280.267" gradientUnits="userSpaceOnUse">
<stop stop-color="#090814" stop-opacity="0"/>
<stop offset="0.442708" stop-color="#0C40F7"/>
<stop offset="1" stop-color="#FF00D6"/>
</linearGradient>
</defs>
</svg>
