<svg width="403" height="26" viewBox="0 0 403 26" fill="none" xmlns="http://www.w3.org/2000/svg">
<path fill-rule="evenodd" clip-rule="evenodd" d="M193.75 17.249C193.75 15.0399 191.959 13.249 189.75 13.249C187.541 13.249 185.75 15.0399 185.75 17.249C185.75 19.4582 187.541 21.249 189.75 21.249C191.959 21.249 193.75 19.4582 193.75 17.249ZM189.75 11.249C193.064 11.249 195.75 13.9353 195.75 17.249C195.75 20.5627 193.064 23.249 189.75 23.249C186.436 23.249 183.75 20.5627 183.75 17.249C183.75 13.9353 186.436 11.249 189.75 11.249Z" fill="#0E96B4"/>
<path d="M1.96589 12.6978L1.99772 12.6546C3.45598 10.6733 6.41834 10.6759 7.8745 12.6588V12.6588C9.33081 14.6419 12.294 14.643 13.7503 12.6599V12.6599C15.2066 10.6768 18.169 10.6769 19.6253 12.6599V12.6599C21.0816 14.643 24.044 14.643 25.5003 12.6599V12.6599C26.9566 10.6769 29.919 10.6769 31.3753 12.6599V12.6599C32.8316 14.643 35.794 14.643 37.2503 12.6599V12.6599C38.7066 10.6769 41.669 10.6769 43.1253 12.6599V12.6599C44.5816 14.643 47.544 14.643 49.0003 12.6599V12.6599C50.4566 10.6769 53.419 10.6769 54.8753 12.6599V12.6599C56.3316 14.643 59.294 14.643 60.7503 12.6599V12.6599" stroke="#3B425C" stroke-width="2" stroke-linecap="round"/>
<path fill-rule="evenodd" clip-rule="evenodd" d="M107.75 1.65991V3.65991L111.75 3.65991V23.6599L83.75 23.6599V3.65991L101.75 3.65991V1.65991H107.75ZM101.75 5.65991L107.75 5.65991H109.75V21.6599L85.75 21.6599L85.75 5.65991L101.75 5.65991ZM103.75 8.65991L103.75 18.6599H105.75L105.75 8.65991H103.75Z" fill="#3B425C"/>
<path fill-rule="evenodd" clip-rule="evenodd" d="M155.75 0.682861V20.1599H149.75V14.1599H153.75V3.63693L145.75 6.83693V24.1599H139.75V18.1599H143.75V5.48286L155.75 0.682861ZM143.75 20.1599H141.75V22.1599H143.75V20.1599ZM153.75 16.1599H151.75V18.1599H153.75V16.1599Z" fill="#3B425C"/>
<path fill-rule="evenodd" clip-rule="evenodd" d="M188.764 0H195.25V2H190.764V3.24902H194.198L195.984 5.24902H211.75V7.69809L202.13 16.249H198.276L190.75 7.05043V17.249H188.75V7.01465H187.6V3.24902H188.764V0ZM193.302 5.24902H191.86L199.224 14.249H201.37L209.245 7.24902H195.089L193.302 5.24902ZM207.508 14.4206L211.432 18.3449L212.846 16.9307L208.922 13.0063L207.508 14.4206Z" fill="#3B425C"/>
<path fill-rule="evenodd" clip-rule="evenodd" d="M253.929 2.47998L258.821 6.25404L263.714 2.47998L269.821 5.62109V14.4371L258.821 22.9228L247.821 14.4371V5.62109L253.929 2.47998ZM257.821 8.00855L253.714 4.83975L249.821 6.84151V13.454L258.821 20.3969L267.821 13.454V6.84151L263.929 4.83975L259.821 8.00855V11.3742H257.821V8.00855Z" fill="#3B425C"/>
<path fill-rule="evenodd" clip-rule="evenodd" d="M319.821 2.65991L319.821 21.6599L318.053 22.3001L313.353 16.6599L297.821 16.6599L297.821 2.65991L319.821 2.65991ZM317.821 4.65991L299.821 4.65991L299.821 14.6599L314.29 14.6599L317.821 18.8979L317.821 4.65991Z" fill="#3B425C"/>
<path fill-rule="evenodd" clip-rule="evenodd" d="M310.821 10.6638L302.821 10.6638L302.821 8.66382L310.821 8.66382L310.821 10.6638Z" fill="#0E96B4"/>
<path fill-rule="evenodd" clip-rule="evenodd" d="M315.208 10.6638L313.099 10.6638L313.099 8.66382L315.208 8.66382V10.6638Z" fill="#3B425C"/>
<path d="M342.747 12.6655L342.794 12.6033C344.271 10.6389 347.233 10.6673 348.687 12.6481V12.6481C350.144 14.6312 353.115 14.643 354.571 12.6599V12.6599C356.027 10.6768 358.99 10.6769 360.446 12.6599V12.6599C361.902 14.643 364.865 14.643 366.321 12.6599V12.6599C367.777 10.6769 370.74 10.6769 372.196 12.6599V12.6599C373.652 14.643 376.615 14.643 378.071 12.6599V12.6599C379.527 10.6769 382.49 10.6769 383.946 12.6599V12.6599C385.402 14.643 388.365 14.643 389.821 12.6599V12.6599C391.277 10.6769 394.24 10.6769 395.696 12.6599V12.6599C397.152 14.643 400.115 14.643 401.571 12.6599V12.6599" stroke="#3B425C" stroke-width="2" stroke-linecap="round"/>
<path fill-rule="evenodd" clip-rule="evenodd" d="M214.578 14.4205C213.016 12.8584 210.484 12.8584 208.922 14.4205C207.359 15.9826 207.359 18.5153 208.922 20.0774C210.484 21.6395 213.016 21.6395 214.578 20.0774C216.141 18.5153 216.141 15.9826 214.578 14.4205ZM207.507 13.0063C209.851 10.6632 213.649 10.6632 215.993 13.0063C218.336 15.3495 218.336 19.1484 215.993 21.4916C213.649 23.8347 209.851 23.8347 207.507 21.4916C205.164 19.1484 205.164 15.3495 207.507 13.0063Z" fill="#3B425C"/>
<path fill-rule="evenodd" clip-rule="evenodd" d="M97.75 13.6599C97.75 11.4508 95.9591 9.65991 93.75 9.65991C91.5409 9.65991 89.75 11.4508 89.75 13.6599C89.75 15.8691 91.5409 17.6599 93.75 17.6599C95.9591 17.6599 97.75 15.8691 97.75 13.6599ZM93.75 7.65991C97.0637 7.65991 99.75 10.3462 99.75 13.6599C99.75 16.9736 97.0637 19.6599 93.75 19.6599C90.4363 19.6599 87.75 16.9736 87.75 13.6599C87.75 10.3462 90.4363 7.65991 93.75 7.65991Z" fill="#0E96B4"/>
</svg>
