<svg width="94" height="32" viewBox="0 0 94 32" fill="none" xmlns="http://www.w3.org/2000/svg">
<g clip-path="url(#clip0_8_1357)">
<path d="M2.31427e-05 9.14281V29.1429C-0.00149192 29.5184 0.0713964 29.8905 0.214484 30.2377C0.357572 30.5849 0.568027 30.9008 0.833712 31.1664C1.09938 31.432 1.41504 31.6425 1.76244 31.7856C2.10988 31.9285 2.4822 32.0016 2.85792 32H34.8663C35.242 32.0016 35.6143 31.9285 35.9617 31.7856C36.3091 31.6425 36.6248 31.432 36.8904 31.1664C37.1561 30.9008 37.3667 30.5849 37.5096 30.2377C37.6528 29.8905 37.7256 29.5184 37.7241 29.1429V14.8571C37.7241 12.1292 38.8081 9.51295 40.7375 7.58404C42.6669 5.65508 45.2839 4.5714 48.0125 4.5714H65.1597C65.7663 4.5714 66.3479 4.81225 66.7768 5.24089C67.2051 5.66953 67.4463 6.25092 67.4463 6.85711C67.4463 7.46335 67.2051 8.04473 66.7768 8.47337C66.3479 8.90201 65.7663 9.14281 65.1597 9.14281H48.0125C46.4967 9.14281 45.0428 9.74489 43.9708 10.8165C42.8989 11.8881 42.2967 13.3416 42.2967 14.8571V25.1429C42.2967 26.9616 43.0195 28.7056 44.3056 29.9913C45.5919 31.2773 47.3365 32 49.1556 32H89.7379C90.1135 32.0016 90.4857 31.9285 90.8332 31.7856C91.1804 31.6425 91.4963 31.432 91.7619 31.1664C92.0276 30.9008 92.2377 30.5849 92.3813 30.2377C92.5241 29.8905 92.5968 29.5184 92.5957 29.1429V19.7141C92.5957 19.2597 92.4148 18.8235 92.0931 18.5019C91.7715 18.1805 91.3356 18 90.8805 18H49.0072C48.7261 18 48.4483 17.9447 48.1889 17.8373C47.9296 17.7299 47.694 17.5725 47.4955 17.374C47.2969 17.1756 47.1395 16.94 47.0321 16.6807C46.9247 16.4213 46.8693 16.1435 46.8693 15.8628C46.8693 15.2949 47.0943 14.7501 47.4948 14.3476C47.8955 13.9449 48.4391 13.7173 49.0072 13.7143H85.7369C87.5555 13.7143 89.3004 12.9918 90.5867 11.7059C91.8728 10.4199 92.5957 8.67577 92.5957 6.85711C92.5957 5.03849 91.8728 3.29433 90.5867 2.00843C89.3004 0.722452 87.5555 0 85.7369 0H9.14527C6.71977 0 4.39368 0.963253 2.67863 2.67787C0.96356 4.39248 2.31427e-05 6.71801 2.31427e-05 9.14281Z" fill="#646F93" fill-opacity="0.2"/>
</g>
<defs>
<clipPath id="clip0_8_1357">
<rect width="93.3333" height="32" fill="white"/>
</clipPath>
</defs>
</svg>
