<svg width="70" height="24" viewBox="0 0 70 24" fill="none" xmlns="http://www.w3.org/2000/svg">
<path d="M1.7357e-05 6.85711V21.8572C-0.00111894 22.1388 0.0535473 22.4179 0.160863 22.6783C0.268179 22.9387 0.42602 23.1756 0.625284 23.3748C0.824536 23.574 1.06128 23.7319 1.32183 23.8392C1.58241 23.9464 1.86165 24.0012 2.14344 24H26.1497C26.4315 24.0012 26.7107 23.9464 26.9713 23.8392C27.2318 23.7319 27.4686 23.574 27.6678 23.3748C27.8671 23.1756 28.025 22.9387 28.1322 22.6783C28.2396 22.4179 28.2942 22.1388 28.2931 21.8572V11.1428C28.2931 9.09689 29.1061 7.13471 30.5531 5.68803C32.0002 4.24131 33.9629 3.42855 36.0094 3.42855H48.8698C49.3247 3.42855 49.7609 3.60919 50.0826 3.93067C50.4038 4.25215 50.5847 4.68819 50.5847 5.14283C50.5847 5.59751 50.4038 6.03355 50.0826 6.35503C49.7609 6.67651 49.3247 6.85711 48.8698 6.85711H36.0094C34.8725 6.85711 33.7821 7.30867 32.9781 8.11237C32.1742 8.91607 31.7225 10.0062 31.7225 11.1428V18.8572C31.7225 20.2212 32.2646 21.5292 33.2292 22.4935C34.1939 23.458 35.5024 24 36.8667 24H67.3034C67.5851 24.0012 67.8643 23.9464 68.1249 23.8392C68.3853 23.7319 68.6222 23.574 68.8214 23.3748C69.0207 23.1756 69.1783 22.9387 69.286 22.6783C69.3931 22.4179 69.4476 22.1388 69.4468 21.8572V14.7856C69.4468 14.4448 69.3111 14.1176 69.0698 13.8764C68.8286 13.6354 68.5017 13.5 68.1604 13.5H36.7554C36.5446 13.5 36.3362 13.4585 36.1417 13.378C35.9472 13.2974 35.7705 13.1794 35.6216 13.0305C35.4727 12.8817 35.3546 12.705 35.2741 12.5105C35.1935 12.316 35.152 12.1076 35.152 11.8971C35.152 11.4712 35.3207 11.0626 35.6211 10.7607C35.9216 10.4587 36.3293 10.288 36.7554 10.2857H64.3027C65.6666 10.2857 66.9753 9.74384 67.94 8.77942C68.9046 7.81492 69.4468 6.50683 69.4468 5.14283C69.4468 3.77887 68.9046 2.47075 67.94 1.50632C66.9753 0.541839 65.6666 0 64.3027 0H6.85895C5.03983 0 3.29526 0.72244 2.00897 2.0084C0.72267 3.29436 1.7357e-05 5.03851 1.7357e-05 6.85711Z" fill="#D1ECFF" fill-opacity="0.19"/>
</svg>
