<svg width="191" height="191" viewBox="0 0 191 191" fill="none" xmlns="http://www.w3.org/2000/svg">
<rect width="191" height="191" fill="white"/>
<path d="M8.71434 82.6428V120.143C8.7115 120.847 8.84813 121.545 9.11635 122.196C9.38457 122.847 9.77907 123.439 10.2771 123.937C10.7751 124.435 11.3668 124.83 12.018 125.098C12.6693 125.366 13.3672 125.503 14.0715 125.5H74.0715C74.7758 125.503 75.4736 125.366 76.1249 125.098C76.7761 124.83 77.3678 124.435 77.8658 123.937C78.3639 123.439 78.7584 122.847 79.0266 122.196C79.2948 121.545 79.4314 120.847 79.4286 120.143V93.3571C79.4286 88.2422 81.4605 83.3368 85.0772 79.7201C88.694 76.1033 93.5994 74.0714 98.7143 74.0714H130.857C131.994 74.0714 133.084 74.523 133.888 75.3267C134.691 76.1304 135.143 77.2205 135.143 78.3571C135.143 79.4938 134.691 80.5839 133.888 81.3876C133.084 82.1913 131.994 82.6428 130.857 82.6428H98.7143C95.8727 82.6428 93.1475 83.7717 91.1381 85.781C89.1288 87.7903 88 90.5155 88 93.3571V112.643C88 116.053 89.3546 119.323 91.7658 121.734C94.1769 124.145 97.4472 125.5 100.857 125.5H176.929C177.633 125.503 178.331 125.366 178.982 125.098C179.633 124.83 180.225 124.435 180.723 123.937C181.221 123.439 181.615 122.847 181.884 122.196C182.152 121.545 182.288 120.847 182.286 120.143V102.464C182.286 101.612 181.947 100.794 181.344 100.191C180.741 99.5886 179.924 99.25 179.071 99.25H100.579C100.052 99.25 99.5313 99.1463 99.0451 98.945C98.5589 98.7436 98.1172 98.4484 97.7451 98.0763C97.373 97.7042 97.0778 97.2625 96.8765 96.7763C96.6751 96.2901 96.5714 95.7691 96.5714 95.2428V95.2428C96.5714 94.1781 96.9929 93.1567 97.7438 92.4018C98.4947 91.6469 99.5138 91.2199 100.579 91.2143H169.429C172.838 91.2143 176.109 89.8597 178.52 87.4485C180.931 85.0373 182.286 81.7671 182.286 78.3571C182.286 74.9472 180.931 71.6769 178.52 69.2658C176.109 66.8546 172.838 65.5 169.429 65.5H25.8572C21.3106 65.5 16.9503 67.3061 13.7354 70.521C10.5205 73.7359 8.71434 78.0963 8.71434 82.6428V82.6428Z" fill="#72767A"/>
</svg>
