<svg width="830" height="41" viewBox="0 0 830 41" fill="none" xmlns="http://www.w3.org/2000/svg">
<path d="M434.466 38.4648V2.53491H443.448C445.125 2.53491 446.631 2.94554 447.965 3.76679C449.334 4.55383 450.412 5.63173 451.199 7.00048C452.02 8.33502 452.431 9.84066 452.431 11.5174V29.4823C452.431 31.1591 452.02 32.6818 451.199 34.0506C450.412 35.3851 449.334 36.463 447.965 37.2842C446.631 38.0713 445.125 38.4648 443.448 38.4648H434.466ZM442.114 31.8434H443.551C443.893 31.8434 444.167 31.7237 444.372 31.4841C444.612 31.2446 444.732 30.9709 444.732 30.6629V10.3882C444.732 10.0802 444.612 9.80644 444.372 9.56691C444.167 9.32737 443.893 9.2076 443.551 9.2076H442.114V31.8434Z" fill="#1064FB"/>
<path d="M423.924 38.9782C422.281 38.9782 420.776 38.5676 419.407 37.7463C418.038 36.925 416.943 35.8129 416.122 34.41C415.335 33.007 414.941 31.45 414.941 29.7391V26.2487H422.641V30.6117C422.641 30.9538 422.76 31.2447 423 31.4842C423.274 31.7238 423.582 31.8435 423.924 31.8435C424.266 31.8435 424.557 31.7238 424.796 31.4842C425.036 31.2105 425.156 30.9025 425.156 30.5603V25.6328C425.156 25.2906 425.036 24.9997 424.796 24.7602C424.557 24.4865 424.266 24.3496 423.924 24.3496H418.945V16.6503H423.924C424.266 16.6503 424.557 16.5306 424.796 16.291C425.036 16.0515 425.156 15.7606 425.156 15.4184V10.4909C425.156 10.1487 425.036 9.85787 424.796 9.61833C424.557 9.34458 424.266 9.2077 423.924 9.2077C423.582 9.2077 423.274 9.32747 423 9.56701C422.76 9.80654 422.641 10.1145 422.641 10.4909V14.7512H414.941V11.2608C414.941 9.54989 415.335 7.99293 416.122 6.58996C416.943 5.18698 418.038 4.07486 419.407 3.25361C420.776 2.43236 422.281 2.02173 423.924 2.02173C425.566 2.02173 427.072 2.43236 428.441 3.25361C429.81 4.07486 430.887 5.18698 431.674 6.58996C432.496 7.99293 432.906 9.54989 432.906 11.2608V12.8007C432.872 14.1352 432.496 15.4184 431.777 16.6503C431.093 17.8822 430.1 18.7377 428.8 19.2167V20.038C429.69 20.3118 430.425 20.8079 431.007 21.5265C431.623 22.2451 432.085 23.0493 432.393 23.939C432.735 24.7944 432.906 25.6499 432.906 26.5054V29.7391C432.906 31.45 432.496 33.007 431.674 34.41C430.887 35.8129 429.81 36.925 428.441 37.7463C427.072 38.5676 425.566 38.9782 423.924 38.9782Z" fill="#1064FB"/>
<path d="M614.215 38.4648V2.53491H620.374L624.737 16.6502H625.507V2.53491H632.18V38.4648H626.02L621.657 24.3495H620.888V38.4648H614.215Z" fill="#FF6B00"/>
<path d="M603.622 38.9782C601.98 38.9782 600.474 38.5847 599.105 37.7976C597.736 36.9764 596.641 35.8985 595.82 34.5639C595.033 33.1952 594.64 31.6724 594.64 29.9957V11.0042C594.64 9.32747 595.033 7.82184 595.82 6.4873C596.641 5.11854 597.736 4.04065 599.105 3.25361C600.474 2.43236 601.98 2.02173 603.622 2.02173C605.265 2.02173 606.77 2.43236 608.139 3.25361C609.508 4.04065 610.586 5.11854 611.373 6.4873C612.194 7.82184 612.605 9.32747 612.605 11.0042V29.9957C612.605 31.6724 612.194 33.1952 611.373 34.5639C610.586 35.8985 609.508 36.9764 608.139 37.7976C606.77 38.5847 605.265 38.9782 603.622 38.9782ZM603.622 32.2028C603.999 32.2028 604.306 32.0831 604.546 31.8435C604.786 31.5698 604.905 31.2618 604.905 30.9196V10.029C604.905 9.65255 604.786 9.34458 604.546 9.10505C604.306 8.8313 603.999 8.69442 603.622 8.69442C603.246 8.69442 602.921 8.8313 602.647 9.10505C602.407 9.34458 602.288 9.65255 602.288 10.029V30.9196C602.288 31.2618 602.407 31.5698 602.647 31.8435C602.921 32.0831 603.246 32.2028 603.622 32.2028Z" fill="#FF6B00"/>
<path d="M585.842 38.4648V2.53491H593.592V38.4648H585.842Z" fill="#FF6B00"/>
<path d="M571.194 38.4648V9.2076H566.317V2.53491H583.769V9.2076H578.893V38.4648H571.194Z" fill="#FF6B00"/>
<path d="M549.349 38.4648L553.712 2.53491H562.951L567.314 38.4648H560.128L559.666 31.8434H556.945L556.586 38.4648H549.349ZM557.356 24.1442H559.306L558.793 12.8006H557.92L557.356 24.1442Z" fill="#FF6B00"/>
<path d="M525.863 38.4648V2.53491H534.64L536.95 18.498H537.258L539.465 2.53491H548.294V38.4648H541.621V22.5017H541.313L539.311 38.4648H534.846L532.844 22.5017H532.536V38.4648H525.863Z" fill="#FF6B00"/>
<path d="M516.063 38.4648V2.53491H523.814V38.4648H516.063Z" fill="#FF6B00"/>
<path d="M496.037 38.4648V2.53491H502.197L506.559 16.6502H507.329V2.53491H514.002V38.4648H507.843L503.48 24.3495H502.71V38.4648H496.037Z" fill="#FF6B00"/>
<path d="M477.014 38.4648L481.377 2.53491H490.616L494.979 38.4648H487.793L487.331 31.8434H484.61L484.251 38.4648H477.014ZM485.021 24.1442H486.971L486.458 12.8006H485.586L485.021 24.1442Z" fill="#FF6B00"/>
<path d="M820.417 38.9782C818.775 38.9782 817.269 38.5847 815.9 37.7976C814.531 36.9764 813.436 35.8985 812.615 34.5639C811.828 33.1952 811.435 31.6724 811.435 29.9957V25.8894H819.083V30.2524C819.083 30.5945 819.202 30.9196 819.442 31.2276C819.716 31.5013 820.041 31.6382 820.417 31.6382C820.793 31.6382 821.119 31.5013 821.392 31.2276C821.666 30.9196 821.803 30.5945 821.803 30.2524C821.803 29.9444 821.769 29.6877 821.7 29.4824C821.632 29.2429 821.478 28.9349 821.238 28.5585L815.079 18.4981C814.634 17.7453 814.121 16.9583 813.539 16.137C812.957 15.2816 812.461 14.4432 812.051 13.6219C811.64 12.7665 811.435 11.9623 811.435 11.2095V11.0042C811.435 9.32747 811.828 7.82184 812.615 6.4873C813.436 5.11854 814.531 4.04065 815.9 3.25361C817.269 2.43236 818.775 2.02173 820.417 2.02173C822.094 2.02173 823.599 2.43236 824.934 3.25361C826.303 4.04065 827.381 5.11854 828.168 6.4873C828.989 7.82184 829.4 9.32747 829.4 11.0042V14.6485H821.803V10.6962C821.803 10.3198 821.666 9.99474 821.392 9.72099C821.119 9.44724 820.793 9.31036 820.417 9.31036C820.075 9.31036 819.767 9.44724 819.493 9.72099C819.219 9.99474 819.083 10.3198 819.083 10.6962C819.083 10.9358 819.117 11.1411 819.185 11.3122C819.288 11.449 819.425 11.6715 819.596 11.9794L825.961 22.0911C826.748 23.3572 827.517 24.6233 828.27 25.8894C829.023 27.1213 829.4 28.4216 829.4 29.7904V29.9957C829.4 31.6724 828.989 33.1952 828.168 34.5639C827.381 35.8985 826.303 36.9764 824.934 37.7976C823.599 38.5847 822.094 38.9782 820.417 38.9782Z" fill="#FF249D"/>
<path d="M801.149 38.9782C799.507 38.9782 798.001 38.5847 796.633 37.7976C795.264 36.9764 794.169 35.8985 793.348 34.5639C792.561 33.1952 792.167 31.6724 792.167 29.9957V11.0042C792.167 9.32747 792.561 7.82184 793.348 6.4873C794.169 5.11854 795.264 4.04065 796.633 3.25361C798.001 2.43236 799.507 2.02173 801.149 2.02173C802.826 2.02173 804.332 2.43236 805.666 3.25361C807.035 4.04065 808.113 5.11854 808.9 6.4873C809.721 7.82184 810.132 9.32747 810.132 11.0042V16.6503H802.535V10.5422C802.535 10.1658 802.398 9.85787 802.125 9.61833C801.851 9.34458 801.526 9.2077 801.149 9.2077C800.807 9.2077 800.499 9.34458 800.226 9.61833C799.952 9.85787 799.815 10.1658 799.815 10.5422V30.509C799.815 30.8512 799.952 31.1592 800.226 31.4329C800.499 31.7067 800.807 31.8435 801.149 31.8435C801.526 31.8435 801.851 31.7067 802.125 31.4329C802.398 31.1592 802.535 30.8512 802.535 30.509V24.3496H810.132V29.9957C810.132 31.6724 809.721 33.1952 808.9 34.5639C808.113 35.8985 807.035 36.9764 805.666 37.7976C804.332 38.5847 802.826 38.9782 801.149 38.9782Z" fill="#FF249D"/>
<path d="M783.112 38.4648V2.53491H790.863V38.4648H783.112Z" fill="#FF249D"/>
<path d="M763.086 38.4648V2.53491H770.734V16.6502H773.454V2.53491H781.051V38.4648H773.454V24.3495H770.734V38.4648H763.086Z" fill="#FF249D"/>
<path d="M744.062 38.4648V2.53491H752.018C753.866 2.53491 755.543 2.97976 757.049 3.86945C758.554 4.75914 759.752 5.95681 760.642 7.46244C761.565 8.96807 762.027 10.6448 762.027 12.4926V18.652C762.027 20.4999 761.565 22.1766 760.642 23.6822C759.752 25.1878 758.554 26.3855 757.049 27.2752C755.543 28.1649 753.866 28.6097 752.018 28.6097H751.71V38.4648H744.062ZM751.71 21.937H751.864C752.309 21.937 752.72 21.8857 753.096 21.7831C753.473 21.6804 753.764 21.3895 753.969 20.9105C754.208 20.4314 754.328 19.6273 754.328 18.498V12.6979C754.328 11.5345 754.208 10.7132 753.969 10.2342C753.764 9.75511 753.473 9.46425 753.096 9.36159C752.72 9.25893 752.309 9.2076 751.864 9.2076H751.71V21.937Z" fill="#FF249D"/>
<path d="M725.039 38.4648L729.402 2.53491H738.641L743.004 38.4648H735.818L735.356 31.8434H732.636L732.276 38.4648H725.039ZM733.046 24.1442H734.997L734.483 12.8006H733.611L733.046 24.1442Z" fill="#FF249D"/>
<path d="M705.013 38.4648V2.53491H712.866C714.714 2.53491 716.408 2.99687 717.947 3.92078C719.487 4.81047 720.702 6.02524 721.592 7.56509C722.516 9.07073 722.978 10.7646 722.978 12.6466V18.652C722.978 19.5417 722.755 20.7052 722.31 22.1424C721.866 23.5453 721.027 24.8114 719.795 25.9407V26.7106L722.978 38.4648H715.278L713.123 28.5584H712.661V38.4648H705.013ZM712.661 21.937H713.071C713.687 21.937 714.2 21.766 714.611 21.4238C715.056 21.0474 715.278 20.1234 715.278 18.652V12.4926C715.278 11.0554 715.056 10.1486 714.611 9.77222C714.2 9.39581 713.687 9.2076 713.071 9.2076H712.661V21.937Z" fill="#FF249D"/>
<path d="M689.828 38.9782C688.185 38.9782 686.782 38.5847 685.619 37.7976C684.489 36.9764 683.634 35.8985 683.052 34.5639C682.471 33.1952 682.18 31.6724 682.18 29.9957V11.0042C682.18 9.77232 682.488 8.60887 683.104 7.51387C683.72 6.41886 684.524 5.46073 685.516 4.63948C686.543 3.81822 687.672 3.18517 688.904 2.74033C690.136 2.26126 691.367 2.02173 692.599 2.02173C694.276 2.02173 695.901 2.43236 697.476 3.25361C699.05 4.04065 700.35 5.11854 701.377 6.4873C702.437 7.82184 702.968 9.32747 702.968 11.0042V14.6485H695.371V11.7741C695.371 10.9871 695.063 10.3711 694.447 9.9263C693.865 9.44724 693.25 9.2077 692.599 9.2077C691.949 9.2077 691.316 9.44724 690.7 9.9263C690.118 10.3711 689.828 10.9871 689.828 11.7741V28.9691C689.828 29.722 690.153 30.3892 690.803 30.971C691.453 31.5527 692.155 31.8435 692.907 31.8435C693.694 31.8435 694.413 31.5527 695.063 30.971C695.713 30.3892 696.038 29.722 696.038 28.9691V25.6841H692.548V18.4981H702.968V38.4649H696.038V36.6684H695.268C695.097 37.1132 694.687 37.5068 694.037 37.849C693.421 38.1911 692.719 38.4649 691.932 38.6702C691.179 38.8755 690.478 38.9782 689.828 38.9782Z" fill="#FF249D"/>
<path d="M229.16 38.4648V2.53491H235.32L239.682 16.6502H240.452V2.53491H247.125V38.4648H240.966L236.603 24.3495H235.833V38.4648H229.16Z" fill="#01FDA3"/>
<path d="M213.975 38.9782C212.333 38.9782 210.93 38.5847 209.766 37.7976C208.637 36.9764 207.781 35.8985 207.2 34.5639C206.618 33.1952 206.327 31.6724 206.327 29.9957V11.0042C206.327 9.77232 206.635 8.60887 207.251 7.51387C207.867 6.41886 208.671 5.46073 209.663 4.63948C210.69 3.81822 211.819 3.18517 213.051 2.74033C214.283 2.26126 215.515 2.02173 216.747 2.02173C218.424 2.02173 220.049 2.43236 221.623 3.25361C223.197 4.04065 224.497 5.11854 225.524 6.4873C226.585 7.82184 227.115 9.32747 227.115 11.0042V14.6485H219.519V11.7741C219.519 10.9871 219.211 10.3711 218.595 9.9263C218.013 9.44724 217.397 9.2077 216.747 9.2077C216.097 9.2077 215.464 9.44724 214.848 9.9263C214.266 10.3711 213.975 10.9871 213.975 11.7741V28.9691C213.975 29.722 214.3 30.3892 214.95 30.971C215.6 31.5527 216.302 31.8435 217.055 31.8435C217.842 31.8435 218.56 31.5527 219.211 30.971C219.861 30.3892 220.186 29.722 220.186 28.9691V25.6841H216.695V18.4981H227.115V38.4649H220.186V36.6684H219.416C219.245 37.1132 218.834 37.5068 218.184 37.849C217.568 38.1911 216.867 38.4649 216.08 38.6702C215.327 38.8755 214.625 38.9782 213.975 38.9782Z" fill="#01FDA3"/>
<path d="M197.529 38.4648V2.53491H205.28V38.4648H197.529Z" fill="#01FDA3"/>
<path d="M187.789 38.9782C186.147 38.9782 184.641 38.5847 183.272 37.7976C181.903 36.9764 180.808 35.8985 179.987 34.5639C179.2 33.1952 178.807 31.6724 178.807 29.9957V25.8894H186.455V30.2524C186.455 30.5945 186.574 30.9196 186.814 31.2276C187.088 31.5013 187.413 31.6382 187.789 31.6382C188.166 31.6382 188.491 31.5013 188.764 31.2276C189.038 30.9196 189.175 30.5945 189.175 30.2524C189.175 29.9444 189.141 29.6877 189.072 29.4824C189.004 29.2429 188.85 28.9349 188.61 28.5585L182.451 18.4981C182.006 17.7453 181.493 16.9583 180.911 16.137C180.329 15.2816 179.833 14.4432 179.423 13.6219C179.012 12.7665 178.807 11.9623 178.807 11.2095V11.0042C178.807 9.32747 179.2 7.82184 179.987 6.4873C180.808 5.11854 181.903 4.04065 183.272 3.25361C184.641 2.43236 186.147 2.02173 187.789 2.02173C189.466 2.02173 190.971 2.43236 192.306 3.25361C193.675 4.04065 194.753 5.11854 195.54 6.4873C196.361 7.82184 196.772 9.32747 196.772 11.0042V14.6485H189.175V10.6962C189.175 10.3198 189.038 9.99474 188.764 9.72099C188.491 9.44724 188.166 9.31036 187.789 9.31036C187.447 9.31036 187.139 9.44724 186.865 9.72099C186.591 9.99474 186.455 10.3198 186.455 10.6962C186.455 10.9358 186.489 11.1411 186.557 11.3122C186.66 11.449 186.797 11.6715 186.968 11.9794L193.333 22.0911C194.12 23.3572 194.89 24.6233 195.642 25.8894C196.395 27.1213 196.772 28.4216 196.772 29.7904V29.9957C196.772 31.6724 196.361 33.1952 195.54 34.5639C194.753 35.8985 193.675 36.9764 192.306 37.7976C190.971 38.5847 189.466 38.9782 187.789 38.9782Z" fill="#01FDA3"/>
<path d="M163.943 38.4648V2.53491H178.315V9.2076H171.591V16.6502H176.057V24.3495H171.591V31.8434H178.315V38.4648H163.943Z" fill="#01FDA3"/>
<path d="M144.218 38.4648V2.53491H153.2C154.877 2.53491 156.383 2.94554 157.717 3.76679C159.086 4.55383 160.164 5.63173 160.951 7.00048C161.772 8.33502 162.183 9.84066 162.183 11.5174V29.4823C162.183 31.1591 161.772 32.6818 160.951 34.0506C160.164 35.3851 159.086 36.463 157.717 37.2842C156.383 38.0713 154.877 38.4648 153.2 38.4648H144.218ZM151.866 31.8434H153.303C153.645 31.8434 153.919 31.7237 154.124 31.4841C154.364 31.2446 154.483 30.9709 154.483 30.6629V10.3882C154.483 10.0802 154.364 9.80644 154.124 9.56691C153.919 9.32737 153.645 9.2076 153.303 9.2076H151.866V31.8434Z" fill="#01FDA3"/>
<path d="M120.32 38.4648V9.2076H115.443V2.53491H132.895V9.2076H128.019V38.4648H120.32Z" fill="#01FDA3"/>
<path d="M105.709 38.9782C104.067 38.9782 102.561 38.5847 101.192 37.7976C99.8234 36.9764 98.7284 35.8985 97.9071 34.5639C97.1201 33.1952 96.7266 31.6724 96.7266 29.9957V11.0042C96.7266 9.32747 97.1201 7.82184 97.9071 6.4873C98.7284 5.11854 99.8234 4.04065 101.192 3.25361C102.561 2.43236 104.067 2.02173 105.709 2.02173C107.386 2.02173 108.891 2.43236 110.226 3.25361C111.595 4.04065 112.673 5.11854 113.46 6.4873C114.281 7.82184 114.692 9.32747 114.692 11.0042V16.6503H107.095V10.5422C107.095 10.1658 106.958 9.85787 106.684 9.61833C106.411 9.34458 106.085 9.2077 105.709 9.2077C105.367 9.2077 105.059 9.34458 104.785 9.61833C104.511 9.85787 104.374 10.1658 104.374 10.5422V30.509C104.374 30.8512 104.511 31.1592 104.785 31.4329C105.059 31.7067 105.367 31.8435 105.709 31.8435C106.085 31.8435 106.411 31.7067 106.684 31.4329C106.958 31.1592 107.095 30.8512 107.095 30.509V24.3496H114.692V29.9957C114.692 31.6724 114.281 33.1952 113.46 34.5639C112.673 35.8985 111.595 36.9764 110.226 37.7976C108.891 38.5847 107.386 38.9782 105.709 38.9782Z" fill="#01FDA3"/>
<path d="M86.4288 38.9781C84.7862 38.9781 83.2806 38.5846 81.9119 37.7975C80.5431 36.9763 79.4481 35.8984 78.6268 34.5638C77.8398 33.1951 77.4463 31.6723 77.4463 29.9956V2.53491H85.0942V30.4576C85.0942 30.834 85.2311 31.1591 85.5048 31.4328C85.7786 31.7066 86.0866 31.8434 86.4288 31.8434C86.8052 31.8434 87.1302 31.7066 87.404 31.4328C87.6778 31.1591 87.8146 30.834 87.8146 30.4576V2.53491H95.4112V29.9956C95.4112 31.6723 95.0006 33.1951 94.1793 34.5638C93.3923 35.8984 92.3144 36.9763 90.9457 37.7975C89.6111 38.5846 88.1055 38.9781 86.4288 38.9781Z" fill="#01FDA3"/>
<path d="M58.2227 38.4648V2.53491H67.2051C68.8819 2.53491 70.3875 2.94554 71.722 3.76679C73.0908 4.55383 74.1687 5.63173 74.9557 7.00048C75.777 8.33502 76.1876 9.84066 76.1876 11.5174V29.4823C76.1876 31.1591 75.777 32.6818 74.9557 34.0506C74.1687 35.3851 73.0908 36.463 71.722 37.2842C70.3875 38.0713 68.8819 38.4648 67.2051 38.4648H58.2227ZM65.8706 31.8434H67.3078C67.65 31.8434 67.9237 31.7237 68.129 31.4841C68.3686 31.2446 68.4883 30.9709 68.4883 30.6629V10.3882C68.4883 10.0802 68.3686 9.80644 68.129 9.56691C67.9237 9.32737 67.65 9.2076 67.3078 9.2076H65.8706V31.8434Z" fill="#01FDA3"/>
<path d="M47.6299 38.9782C45.9874 38.9782 44.4818 38.5847 43.113 37.7976C41.7443 36.9764 40.6493 35.8985 39.828 34.5639C39.041 33.1952 38.6475 31.6724 38.6475 29.9957V11.0042C38.6475 9.32747 39.041 7.82184 39.828 6.4873C40.6493 5.11854 41.7443 4.04065 43.113 3.25361C44.4818 2.43236 45.9874 2.02173 47.6299 2.02173C49.2724 2.02173 50.7781 2.43236 52.1468 3.25361C53.5156 4.04065 54.5935 5.11854 55.3805 6.4873C56.2018 7.82184 56.6124 9.32747 56.6124 11.0042V29.9957C56.6124 31.6724 56.2018 33.1952 55.3805 34.5639C54.5935 35.8985 53.5156 36.9764 52.1468 37.7976C50.7781 38.5847 49.2724 38.9782 47.6299 38.9782ZM47.6299 32.2028C48.0063 32.2028 48.3143 32.0831 48.5538 31.8435C48.7934 31.5698 48.9131 31.2618 48.9131 30.9196V10.029C48.9131 9.65255 48.7934 9.34458 48.5538 9.10505C48.3143 8.8313 48.0063 8.69442 47.6299 8.69442C47.2535 8.69442 46.9284 8.8313 46.6547 9.10505C46.4152 9.34458 46.2954 9.65255 46.2954 10.029V30.9196C46.2954 31.2618 46.4152 31.5698 46.6547 31.8435C46.9284 32.0831 47.2535 32.2028 47.6299 32.2028Z" fill="#01FDA3"/>
<path d="M19.624 38.4648V2.53491H27.4773C29.3251 2.53491 31.0189 2.99687 32.5588 3.92078C34.0986 4.81047 35.3134 6.02524 36.2031 7.56509C37.127 9.07073 37.589 10.7646 37.589 12.6466V18.652C37.589 19.5417 37.3665 20.7052 36.9217 22.1424C36.4768 23.5453 35.6385 24.8114 34.4066 25.9407V26.7106L37.589 38.4648H29.8897L27.7339 28.5584H27.272V38.4648H19.624ZM27.272 21.937H27.6826C28.2985 21.937 28.8118 21.766 29.2224 21.4238C29.6673 21.0474 29.8897 20.1234 29.8897 18.652V12.4926C29.8897 11.0554 29.6673 10.1486 29.2224 9.77222C28.8118 9.39581 28.2985 9.2076 27.6826 9.2076H27.272V21.937Z" fill="#01FDA3"/>
<path d="M0.600586 38.4648V2.53491H8.55649C10.4043 2.53491 12.081 2.97976 13.5867 3.86945C15.0923 4.75914 16.29 5.95681 17.1797 7.46244C18.1036 8.96807 18.5655 10.6448 18.5655 12.4926V18.652C18.5655 20.4999 18.1036 22.1766 17.1797 23.6822C16.29 25.1878 15.0923 26.3855 13.5867 27.2752C12.081 28.1649 10.4043 28.6097 8.55649 28.6097H8.24852V38.4648H0.600586ZM8.24852 21.937H8.4025C8.84735 21.937 9.25798 21.8857 9.63439 21.7831C10.0108 21.6804 10.3017 21.3895 10.507 20.9105C10.7465 20.4314 10.8663 19.6273 10.8663 18.498V12.6979C10.8663 11.5345 10.7465 10.7132 10.507 10.2342C10.3017 9.75511 10.0108 9.46425 9.63439 9.36159C9.25798 9.25893 8.84735 9.2076 8.4025 9.2076H8.24852V21.937Z" fill="#01FDA3"/>
<path fill-rule="evenodd" clip-rule="evenodd" d="M313.618 38.8317C321.738 38.8317 328.624 33.5528 331.033 26.2399C333.442 33.5528 340.329 38.8316 348.448 38.8316H396.031C400.4 38.8316 403.941 35.2903 403.941 30.9218V10.0782C403.941 5.70979 400.4 2.16846 396.031 2.16846H348.448C340.329 2.16846 333.442 7.44728 331.033 14.7602C328.624 7.44731 321.738 2.16851 313.618 2.16851H266.035C261.666 2.16851 258.125 5.70985 258.125 10.0783V30.9219C258.125 35.2903 261.666 38.8317 266.035 38.8317H313.618ZM268.596 19.4477C275.101 19.4477 280.375 14.1737 280.375 7.66797H282.209C282.209 12.7962 279.373 17.2622 275.184 19.5833L331.025 19.5835L386.883 19.5833C382.694 17.2622 379.858 12.7962 379.858 7.66797H381.691C381.691 14.1717 386.962 19.4444 393.465 19.4477L393.471 19.4477V19.5833L394.048 19.5833V21.4164L391.723 21.4164C386.073 22.3005 381.691 27.4041 381.691 33.6377H379.858C379.858 28.4549 382.533 23.8932 386.546 21.4164L359.218 21.4165V21.4167L331.013 21.4166L302.848 21.4167V21.4165L275.52 21.4164C279.533 23.8932 282.209 28.4549 282.209 33.6377H280.375C280.375 27.4041 275.994 22.3005 270.344 21.4164L268.019 21.4164L268.019 19.5833L268.596 19.5833V19.4477Z" fill="url(#paint0_linear_128_1427)"/>
<path fill-rule="evenodd" clip-rule="evenodd" d="M468.611 16.6112C469.148 17.1481 469.148 18.0186 468.611 18.5555L466.666 20.4998L468.611 22.4443C469.148 22.9812 469.148 23.8517 468.611 24.3886C468.074 24.9255 467.203 24.9255 466.667 24.3886L464.722 22.4442L462.778 24.3886C462.241 24.9255 461.37 24.9255 460.833 24.3886C460.296 23.8517 460.296 22.9812 460.833 22.4443L462.778 20.4998L460.833 18.5555C460.297 18.0186 460.297 17.1481 460.833 16.6112C461.37 16.0743 462.241 16.0743 462.778 16.6112L464.722 18.5555L466.666 16.6112C467.203 16.0743 468.074 16.0743 468.611 16.6112Z" fill="#01FDA3"/>
<path d="M657.18 0.5L657.421 3.67592C658.096 12.5398 665.14 19.5839 674.004 20.2583L677.18 20.5L674.004 20.7417C665.14 21.4161 658.096 28.4602 657.421 37.3241L657.18 40.5L656.938 37.3241C656.264 28.4602 649.219 21.4161 640.356 20.7417L637.18 20.5L640.356 20.2583C649.219 19.5839 656.264 12.5398 656.938 3.67592L657.18 0.5Z" fill="#1064FB"/>
<defs>
<linearGradient id="paint0_linear_128_1427" x1="257.373" y1="25.3012" x2="404.685" y2="26.3463" gradientUnits="userSpaceOnUse">
<stop stop-color="#0066FF"/>
<stop offset="0.499169" stop-color="#FF3AB5"/>
<stop offset="1" stop-color="#FF7A00"/>
</linearGradient>
</defs>
</svg>
